<svg width="26" height="26" viewBox="0 0 26 26" fill="none" xmlns="http://www.w3.org/2000/svg">
<path d="M13.4297 25.8989C20.3332 25.8989 25.9297 20.3025 25.9297 13.3989C25.9297 6.49537 20.3332 0.898926 13.4297 0.898926C6.52613 0.898926 0.929688 6.49537 0.929688 13.3989C0.929688 20.3025 6.52613 25.8989 13.4297 25.8989Z" fill="#00F050"/>
<path d="M18.815 9.75293H9.40871C8.98683 9.75293 8.64307 10.0967 8.64307 10.5186V16.279C8.64307 16.7008 8.98683 17.0446 9.40871 17.0446H18.815C19.2368 17.0446 19.5806 16.7008 19.5806 16.279V10.5186C19.5806 10.0967 19.2368 9.75293 18.815 9.75293ZM15.5285 13.2686L13.3306 15.7425L14.5675 13.2686H13.6066L15.8045 10.7946L14.5675 13.2686H15.5285Z" fill="#E0FFEB"/>
<path d="M7.70297 15.2218H7.10921C6.87744 15.2218 6.68994 15.0343 6.68994 14.8025V11.9952C6.68994 11.7634 6.87744 11.5759 7.10921 11.5759H7.70297C7.93474 11.5759 8.12223 11.7634 8.12223 11.9952V14.8025C8.12223 15.0343 7.93474 15.2218 7.70297 15.2218Z" fill="#E0FFEB"/>
</svg>
