<svg width="97" height="97" viewBox="0 0 97 97" fill="none" xmlns="http://www.w3.org/2000/svg">
<path d="M48.4987 96.4583C75.0083 96.4583 96.4987 74.968 96.4987 48.4583C96.4987 21.9486 75.0083 0.458313 48.4987 0.458313C21.989 0.458313 0.498657 21.9486 0.498657 48.4583C0.498657 74.968 21.989 96.4583 48.4987 96.4583Z" fill="#0C53E2"/>
<path d="M69.1787 34.4583H33.0587C31.4387 34.4583 30.1187 35.7783 30.1187 37.3983V59.5183C30.1187 61.1383 31.4387 62.4583 33.0587 62.4583H69.1787C70.7987 62.4583 72.1187 61.1383 72.1187 59.5183V37.3983C72.1187 35.7783 70.7987 34.4583 69.1787 34.4583ZM56.5587 47.9583L48.1187 57.4583L52.8687 47.9583H49.1787L57.6187 38.4583L52.8687 47.9583H56.5587Z" fill="#E1E1FF"/>
<path d="M26.5087 55.4583H24.2286C23.3386 55.4583 22.6187 54.7383 22.6187 53.8483V43.0683C22.6187 42.1783 23.3386 41.4583 24.2286 41.4583H26.5087C27.3987 41.4583 28.1187 42.1783 28.1187 43.0683V53.8483C28.1187 54.7383 27.3987 55.4583 26.5087 55.4583Z" fill="#E1E1FF"/>
</svg>
