<svg width="40" height="40" viewBox="0 0 40 40" fill="none" xmlns="http://www.w3.org/2000/svg">
<path d="M33.3336 18.3316H36.6669C36.6669 9.78164 30.2119 3.33331 21.6503 3.33331V6.66665C28.4203 6.66665 33.3336 11.5716 33.3336 18.3316Z" fill="#21CD32"/>
<path d="M21.667 13.3333C25.172 13.3333 26.667 14.8283 26.667 18.3333H30.0003C30.0003 12.9583 27.042 9.99999 21.667 9.99999V13.3333ZM27.3703 22.405C27.0501 22.1139 26.6293 21.9587 26.1967 21.972C25.7641 21.9854 25.3537 22.1664 25.052 22.4767L21.0637 26.5783C20.1037 26.395 18.1737 25.7933 16.187 23.8117C14.2003 21.8233 13.5987 19.8883 13.4203 18.935L17.5187 14.945C17.8294 14.6435 18.0106 14.233 18.024 13.8003C18.0373 13.3676 17.8818 12.9467 17.5903 12.6267L11.432 5.85499C11.1404 5.53392 10.7351 5.33917 10.3023 5.31209C9.86939 5.28502 9.44301 5.42776 9.11368 5.70999L5.49701 8.81166C5.20887 9.10085 5.03688 9.48574 5.01368 9.89332C4.98868 10.31 4.51201 20.18 12.1653 27.8367C18.842 34.5117 27.2053 35 29.5087 35C29.8453 35 30.052 34.99 30.107 34.9867C30.5145 34.9638 30.8992 34.7911 31.187 34.5017L34.287 30.8833C34.5695 30.5542 34.7125 30.128 34.6857 29.6951C34.659 29.2622 34.4645 28.8568 34.1437 28.565L27.3703 22.405Z" fill="#21CD32"/>
</svg>
