<svg width="26" height="26" viewBox="0 0 26 26" fill="none" xmlns="http://www.w3.org/2000/svg">
<path d="M13.4414 25.8989C20.345 25.8989 25.9414 20.3025 25.9414 13.3989C25.9414 6.49537 20.345 0.898926 13.4414 0.898926C6.53785 0.898926 0.941406 6.49537 0.941406 13.3989C0.941406 20.3025 6.53785 25.8989 13.4414 25.8989Z" fill="#F0C800"/>
<path d="M18.7223 10.1411H8.16243C7.91503 10.1411 7.71191 10.3442 7.71191 10.5916V17.1073C7.71191 17.3547 7.91503 17.5578 8.16243 17.5578H18.7223C18.9697 17.5578 19.1729 17.3547 19.1729 17.1073V10.5916C19.1703 10.3442 18.9697 10.1411 18.7223 10.1411ZM13.3291 17.2192C11.7171 17.2192 10.4072 15.9119 10.4072 14.2974C10.4072 12.6828 11.7145 11.3755 13.3291 11.3755C14.9437 11.3755 16.251 12.6828 16.251 14.2974C16.251 15.9119 14.9437 17.2192 13.3291 17.2192ZM17.8239 11.938C17.5765 11.938 17.3734 11.7349 17.3734 11.4875C17.3734 11.2401 17.5765 11.0369 17.8239 11.0369C18.0713 11.0369 18.2744 11.2401 18.2744 11.4875C18.2718 11.7375 18.0713 11.938 17.8239 11.938Z" fill="#FFFAE0"/>
<path d="M13.3293 16.7686C14.6942 16.7686 15.8006 15.6622 15.8006 14.2973C15.8006 12.9324 14.6942 11.8259 13.3293 11.8259C11.9644 11.8259 10.8579 12.9324 10.8579 14.2973C10.8579 15.6622 11.9644 16.7686 13.3293 16.7686Z" fill="#FFFAE0"/>
<path d="M16.6991 9.24268H18.048C18.173 9.24268 18.272 9.34424 18.272 9.46663C18.272 9.59163 18.1704 9.69059 18.048 9.69059H16.6991C16.5741 9.69059 16.4751 9.58903 16.4751 9.46663C16.4751 9.34424 16.5767 9.24268 16.6991 9.24268Z" fill="#FFFAE0"/>
</svg>
