<svg width="97" height="97" viewBox="0 0 97 97" fill="none" xmlns="http://www.w3.org/2000/svg">
<path d="M48.4987 96.4583C75.0083 96.4583 96.4987 74.968 96.4987 48.4583C96.4987 21.9486 75.0083 0.458313 48.4987 0.458313C21.989 0.458313 0.498657 21.9486 0.498657 48.4583C0.498657 74.968 21.989 96.4583 48.4987 96.4583Z" fill="#0C53E2"/>
<path d="M68.7787 35.9483H28.2286C27.2786 35.9483 26.4987 36.7283 26.4987 37.6783V62.6983C26.4987 63.6483 27.2786 64.4283 28.2286 64.4283H68.7787C69.7287 64.4283 70.5087 63.6483 70.5087 62.6983V37.6783C70.4987 36.7283 69.7287 35.9483 68.7787 35.9483ZM48.0687 63.1283C41.8787 63.1283 36.8486 58.1083 36.8486 51.9083C36.8486 45.7083 41.8687 40.6883 48.0687 40.6883C54.2687 40.6883 59.2887 45.7083 59.2887 51.9083C59.2887 58.1083 54.2687 63.1283 48.0687 63.1283ZM65.3287 42.8483C64.3787 42.8483 63.5986 42.0683 63.5986 41.1183C63.5986 40.1683 64.3787 39.3883 65.3287 39.3883C66.2787 39.3883 67.0587 40.1683 67.0587 41.1183C67.0487 42.0783 66.2787 42.8483 65.3287 42.8483Z" fill="#E1E1FF"/>
<path d="M48.0687 61.3983C53.3099 61.3983 57.5587 57.1495 57.5587 51.9083C57.5587 46.6671 53.3099 42.4183 48.0687 42.4183C42.8275 42.4183 38.5787 46.6671 38.5787 51.9083C38.5787 57.1495 42.8275 61.3983 48.0687 61.3983Z" fill="#E1E1FF"/>
<path d="M61.0087 32.4983H66.1887C66.6687 32.4983 67.0487 32.8883 67.0487 33.3583C67.0487 33.8383 66.6587 34.2183 66.1887 34.2183H61.0087C60.5287 34.2183 60.1487 33.8283 60.1487 33.3583C60.1487 32.8883 60.5387 32.4983 61.0087 32.4983Z" fill="#E1E1FF"/>
</svg>
