<svg width="26" height="26" viewBox="0 0 26 26" fill="none" xmlns="http://www.w3.org/2000/svg">
<path d="M12.6768 25.8989C19.5803 25.8989 25.1768 20.3025 25.1768 13.3989C25.1768 6.49537 19.5803 0.898926 12.6768 0.898926C5.7732 0.898926 0.176758 6.49537 0.176758 13.3989C0.176758 20.3025 5.7732 25.8989 12.6768 25.8989Z" fill="#00AAFF"/>
<path d="M13.8613 14.912V16.4902H13.0723V20.0422C13.0723 20.2584 12.8978 20.4329 12.6816 20.4329C12.4629 20.4329 12.2832 20.2558 12.2832 20.0344V16.4875H11.4941V14.9094H13.8613V14.912Z" fill="#E0F5FF"/>
<path d="M9.39258 13.4952V10.3103H15.9629V13.4952C15.9629 14.0577 15.5072 14.516 14.9421 14.516H10.4108C9.84832 14.516 9.39258 14.0603 9.39258 13.4952Z" fill="#E0F5FF"/>
<path d="M14.1504 6.36768H11.2077C10.6426 6.36768 10.1816 6.82861 10.1816 7.39372V9.78695H15.1764V7.39372C15.1738 6.82861 14.7155 6.36768 14.1504 6.36768ZM14.7806 7.78434C14.7806 8.01872 14.5905 8.20882 14.3561 8.20882H10.9967C10.7624 8.20882 10.5723 8.01872 10.5723 7.78434V7.31559C10.5723 7.08122 10.7624 6.89111 10.9967 6.89111H14.3561C14.5905 6.89111 14.7806 7.08122 14.7806 7.31559V7.78434Z" fill="#E0F5FF"/>
<path d="M13.7287 7.41976V7.68278C13.7287 7.82861 13.6115 7.9458 13.4657 7.9458C13.3198 7.9458 13.2026 7.82861 13.2026 7.68278V7.41976C13.2026 7.27393 13.3198 7.15674 13.4657 7.15674C13.6115 7.15674 13.7287 7.27393 13.7287 7.41976Z" fill="#E0F5FF"/>
<path d="M14.5177 7.41976V7.68278C14.5177 7.82861 14.4005 7.9458 14.2547 7.9458C14.1089 7.9458 13.9917 7.82861 13.9917 7.68278V7.41976C13.9917 7.27393 14.1089 7.15674 14.2547 7.15674C14.4005 7.15674 14.5177 7.27393 14.5177 7.41976Z" fill="#E0F5FF"/>
<path d="M12.9396 7.41976V7.68278C12.9396 7.82861 12.8224 7.9458 12.6766 7.9458C12.5307 7.9458 12.4136 7.82861 12.4136 7.68278V7.41976C12.4136 7.27393 12.5307 7.15674 12.6766 7.15674C12.8224 7.15674 12.9396 7.27393 12.9396 7.41976Z" fill="#E0F5FF"/>
<path d="M12.153 7.41976V7.68278C12.153 7.82861 12.0358 7.9458 11.89 7.9458C11.7441 7.9458 11.627 7.82861 11.627 7.68278V7.41976C11.627 7.27393 11.7441 7.15674 11.89 7.15674C12.0332 7.15674 12.153 7.27393 12.153 7.41976Z" fill="#E0F5FF"/>
<path d="M11.3639 7.41976V7.68278C11.3639 7.82861 11.2467 7.9458 11.1009 7.9458C10.9551 7.9458 10.8379 7.82861 10.8379 7.68278V7.41976C10.8379 7.27393 10.9551 7.15674 11.1009 7.15674C11.2467 7.15674 11.3639 7.27393 11.3639 7.41976Z" fill="#E0F5FF"/>
</svg>
