<svg width="97" height="97" viewBox="0 0 97 97" fill="none" xmlns="http://www.w3.org/2000/svg">
<path d="M48.4987 96.4583C75.0083 96.4583 96.4987 74.968 96.4987 48.4583C96.4987 21.9486 75.0083 0.458313 48.4987 0.458313C21.989 0.458313 0.498657 21.9486 0.498657 48.4583C0.498657 74.968 21.989 96.4583 48.4987 96.4583Z" fill="#0C53E2"/>
<path d="M53.0488 54.2683V60.3283H50.0187V73.9683C50.0187 74.7983 49.3487 75.4683 48.5187 75.4683C47.6787 75.4683 46.9888 74.7883 46.9888 73.9383V60.3183H43.9587V54.2583H53.0488V54.2683Z" fill="#E1E1FF"/>
<path d="M35.8887 48.8283V36.5983H61.1187V48.8283C61.1187 50.9883 59.3687 52.7483 57.1987 52.7483H39.7987C37.6387 52.7483 35.8887 50.9983 35.8887 48.8283Z" fill="#E1E1FF"/>
<path d="M54.1587 21.4583H42.8587C40.6887 21.4583 38.9187 23.2283 38.9187 25.3983V34.5883H58.0987V25.3983C58.0887 23.2283 56.3287 21.4583 54.1587 21.4583ZM56.5787 26.8983C56.5787 27.7983 55.8487 28.5283 54.9487 28.5283H42.0487C41.1487 28.5283 40.4187 27.7983 40.4187 26.8983V25.0983C40.4187 24.1983 41.1487 23.4683 42.0487 23.4683H54.9487C55.8487 23.4683 56.5787 24.1983 56.5787 25.0983V26.8983Z" fill="#E1E1FF"/>
<path d="M52.5387 25.4983V26.5083C52.5387 27.0683 52.0887 27.5183 51.5287 27.5183C50.9687 27.5183 50.5187 27.0683 50.5187 26.5083V25.4983C50.5187 24.9383 50.9687 24.4883 51.5287 24.4883C52.0887 24.4883 52.5387 24.9383 52.5387 25.4983Z" fill="#E1E1FF"/>
<path d="M55.5687 25.4983V26.5083C55.5687 27.0683 55.1187 27.5183 54.5587 27.5183C53.9987 27.5183 53.5487 27.0683 53.5487 26.5083V25.4983C53.5487 24.9383 53.9987 24.4883 54.5587 24.4883C55.1187 24.4883 55.5687 24.9383 55.5687 25.4983Z" fill="#E1E1FF"/>
<path d="M49.5087 25.4983V26.5083C49.5087 27.0683 49.0587 27.5183 48.4987 27.5183C47.9387 27.5183 47.4888 27.0683 47.4888 26.5083V25.4983C47.4888 24.9383 47.9387 24.4883 48.4987 24.4883C49.0587 24.4883 49.5087 24.9383 49.5087 25.4983Z" fill="#E1E1FF"/>
<path d="M46.4888 25.4983V26.5083C46.4888 27.0683 46.0388 27.5183 45.4788 27.5183C44.9188 27.5183 44.4688 27.0683 44.4688 26.5083V25.4983C44.4688 24.9383 44.9188 24.4883 45.4788 24.4883C46.0288 24.4883 46.4888 24.9383 46.4888 25.4983Z" fill="#E1E1FF"/>
<path d="M43.4587 25.4983V26.5083C43.4587 27.0683 43.0087 27.5183 42.4487 27.5183C41.8887 27.5183 41.4387 27.0683 41.4387 26.5083V25.4983C41.4387 24.9383 41.8887 24.4883 42.4487 24.4883C43.0087 24.4883 43.4587 24.9383 43.4587 25.4983Z" fill="#E1E1FF"/>
</svg>
