<svg width="40" height="40" viewBox="0 0 40 40" fill="none" xmlns="http://www.w3.org/2000/svg">
<path d="M29.9997 16.6334L9.99965 36.6667H36.6663V9.95008L29.9997 16.6334ZM33.333 33.3334H29.9997V21.3001L33.333 17.9667V33.3334ZM8.69965 12.0334L6.54965 9.88341C13.0497 3.36674 23.6163 3.36674 30.133 9.88341L27.983 12.0334C22.6663 6.71674 14.0163 6.71674 8.69965 12.0334ZM21.5497 18.4501L18.333 21.6667L15.1163 18.4501C15.9717 17.6013 17.1279 17.1249 18.333 17.1249C19.5381 17.1249 20.6943 17.6013 21.5497 18.4501ZM23.6997 16.3167C20.733 13.3667 15.933 13.3667 12.983 16.3167L10.833 14.1667C12.8243 12.1817 15.5213 11.0671 18.333 11.0671C21.1447 11.0671 23.8417 12.1817 25.833 14.1667L23.6997 16.3167Z" fill="#6AAEEC"/>
</svg>
