<svg width="25" height="25" viewBox="0 0 97 99" fill="none" xmlns="http://www.w3.org/2000/svg">
<path d="M48.3179 98.0955C74.8275 98.0955 96.3179 76.2933 96.3179 49.3989C96.3179 22.5046 74.8275 0.702393 48.3179 0.702393C21.8082 0.702393 0.317871 22.5046 0.317871 49.3989C0.317871 76.2933 21.8082 98.0955 48.3179 98.0955Z" fill="#FF002B"/>
<path fill-rule="evenodd" clip-rule="evenodd" d="M62.119 74.9181C64.0282 74.2278 65.853 73.3622 67.5723 72.3213C71.4435 59.9074 72.1396 48.9397 72.0447 46.7922C71.4224 32.899 62.1717 22.0081 50.9802 22.0081C50.6111 22.0081 50.2419 22.019 49.8411 22.0519C38.2382 22.8298 29.304 35.2109 29.9158 49.63C30.082 53.5533 27.8678 56.1842 26.3418 57.9974C25.7369 58.7161 25.2402 59.3064 25.0426 59.7978C24.7437 60.1496 24.4731 60.5112 24.1952 60.8825L24.1952 60.8826L24.146 60.9483C24.9687 62.3398 25.897 63.6655 26.9096 64.9036C27.9011 66.1198 28.977 67.2703 30.1162 68.3221C31.2554 69.3849 32.4684 70.3601 33.7447 71.2366C35.0421 72.1351 36.4028 72.924 37.8268 73.6252C39.2297 74.3045 40.6853 74.8852 42.1832 75.3563C43.6915 75.8384 45.2421 76.2 46.8349 76.4411C48.3538 76.6712 49.9149 76.7917 51.5076 76.7917C51.5498 76.7917 51.592 76.7889 51.6342 76.7862C51.6764 76.7835 51.7186 76.7807 51.7608 76.7807C53.4907 76.7698 55.1995 76.6164 56.8555 76.3205C58.6698 76.0138 60.4313 75.5317 62.119 74.9181ZM26.4605 60.4711C26.629 60.6169 26.8349 60.685 27.0409 60.685C27.3124 60.685 27.5932 60.5586 27.7898 60.3252L28.6605 59.2263L28.7167 59.0707C28.7447 59.0026 28.8103 58.8762 28.9695 58.6525C29.0962 58.4822 29.2407 58.3057 29.3983 58.1132L29.3985 58.1129L29.3986 58.1129C29.4388 58.0637 29.4799 58.0135 29.5218 57.9621L29.6622 57.7871L29.7927 57.6315C29.9432 57.4523 30.1023 57.2627 30.2614 57.0674C30.5329 56.7368 30.8044 56.377 31.0759 55.9977C31.3848 55.5698 31.6376 55.1517 31.8716 54.7335C32.1431 54.2473 32.3679 53.7513 32.5457 53.2553C32.7517 52.701 32.9015 52.1273 32.9951 51.5535C33.0981 50.9214 33.1355 50.2796 33.1074 49.628C33.0887 49.0835 32.6394 48.675 32.1338 48.6945C31.6095 48.7139 31.2163 49.171 31.235 49.7058C31.2631 50.2212 31.2351 50.7269 31.1508 51.2229C31.0759 51.6702 30.9542 52.1273 30.795 52.5649C30.6453 52.9636 30.458 53.372 30.2427 53.7707C30.0461 54.1208 29.8214 54.4807 29.5593 54.8502C29.3159 55.1906 29.063 55.5115 28.8196 55.8129C28.6693 55.9989 28.519 56.1791 28.377 56.3493L28.2486 56.5034L28.0988 56.6784C27.8554 56.9702 27.6401 57.2327 27.4622 57.4759C27.2843 57.7287 27.1532 57.9524 27.0503 58.1566L26.3106 59.0999C25.9923 59.5278 26.0579 60.1307 26.4605 60.4711ZM33.2497 41.5168C33.156 41.5168 33.0718 41.5071 32.9781 41.4779C32.4819 41.3223 32.2011 40.7777 32.3509 40.2623C32.7722 38.8036 33.3152 37.3838 33.9705 36.0515C34.6071 34.7289 35.3561 33.4647 36.1893 32.3075C37.0225 31.1503 37.9587 30.0903 38.9511 29.147C39.9622 28.1939 41.0482 27.3576 42.1903 26.6672C43.3512 25.9573 44.5777 25.3932 45.8322 24.9848C47.1241 24.5666 48.4535 24.3041 49.7923 24.2166L50.8595 24.1776C52.1515 24.1776 53.4528 24.3333 54.7073 24.6444C55.2128 24.7709 55.5218 25.296 55.4001 25.8114C55.2784 26.3365 54.7728 26.6575 54.2766 26.531C53.1532 26.2587 52.0111 26.1226 50.8595 26.1226L50.7378 25.1501L50.7472 26.1226L49.9233 26.1518C48.725 26.2296 47.536 26.463 46.3939 26.8325C45.2798 27.202 44.1845 27.7077 43.1453 28.3398C42.1248 28.9622 41.1325 29.7207 40.2243 30.5765C39.3162 31.4323 38.4643 32.4047 37.6966 33.4647C36.9289 34.5247 36.2361 35.6917 35.6463 36.9073C35.0472 38.1423 34.5416 39.4551 34.1484 40.8166C34.0267 41.2445 33.6522 41.5168 33.2497 41.5168ZM69.1402 53.2172C69.1683 53.227 69.2058 53.227 69.2432 53.227C69.7113 53.227 70.1139 52.8672 70.1607 52.3712C70.2543 51.496 70.3292 50.718 70.376 50.0275C70.4228 49.3371 70.4509 48.7439 70.4696 48.2577C70.4883 47.752 70.4883 47.363 70.4789 47.1101C70.4134 45.5445 70.2168 43.9788 69.9079 42.4715C69.6083 40.9933 69.187 39.5443 68.6627 38.1634C68.1478 36.802 67.5206 35.4891 66.8091 34.2735C66.1069 33.058 65.3018 31.9202 64.4218 30.8894C63.5511 29.8585 62.5868 28.9153 61.5664 28.0984C61.1544 27.7677 60.5646 27.8455 60.2557 28.2734C59.9374 28.6916 60.0123 29.3042 60.4242 29.6349C61.351 30.3739 62.2217 31.2297 63.0268 32.173C63.832 33.1163 64.5715 34.1666 65.2175 35.2752C65.8822 36.4033 66.4533 37.6091 66.9308 38.8636C67.4176 40.1473 67.8108 41.4893 68.0916 42.8605C68.3819 44.2705 68.5598 45.7195 68.6253 47.1879C68.6335 47.3834 68.6273 47.6604 68.6194 48.0192L68.6159 48.1799C68.5972 48.6369 68.5691 49.201 68.5223 49.8622C68.4755 50.5332 68.4099 51.2918 68.3163 52.1378C68.2602 52.6727 68.6253 53.1589 69.1402 53.2172ZM65.5836 70.7899C65.49 70.7899 65.387 70.7704 65.2934 70.7413C64.7972 70.5759 64.535 70.0314 64.6942 69.5159C65.1061 68.1934 65.49 66.8416 65.8457 65.4996C66.1734 64.2452 66.4823 62.9615 66.7538 61.6778C67.016 60.4817 67.25 59.2856 67.456 58.1283C67.5496 57.6032 68.0365 57.2434 68.542 57.3503C69.0475 57.4476 69.3846 57.9533 69.2909 58.4784C69.085 59.6648 68.8416 60.8901 68.5794 62.1057C68.2986 63.4186 67.9803 64.7314 67.6526 66.0053C67.2968 67.3765 66.9036 68.7574 66.4824 70.1092C66.3513 70.5273 65.9768 70.7899 65.5836 70.7899ZM60.4213 73.0252C60.5337 73.0738 60.646 73.0933 60.7584 73.0933C61.1329 73.0933 61.4886 72.8599 61.6384 72.4709C62.6589 69.7577 63.5576 66.8695 64.3066 63.8937C64.9338 61.4139 65.4581 58.8661 65.8794 56.3279C66.2913 53.8092 66.5066 51.8059 66.6189 50.5709C66.7406 49.19 66.7968 47.9939 66.7688 47.3618C66.7407 46.8269 66.282 46.4185 65.7858 46.4379C65.2709 46.4671 64.8683 46.9241 64.8964 47.459C64.9151 47.8772 64.887 48.8691 64.7559 50.3959C64.6529 51.592 64.4376 53.5369 64.0351 55.9973C63.6232 58.4868 63.1082 60.9666 62.4903 63.3978C61.7507 66.3055 60.8801 69.1256 59.8877 71.7707C59.7005 72.2667 59.9439 72.8307 60.4213 73.0252ZM61.1499 35.8866C60.8878 35.8866 60.635 35.7796 60.4478 35.556C59.1652 34.0486 57.6953 32.8719 56.0757 32.0551C54.4186 31.2187 52.6586 30.7909 50.8517 30.7909L50.1028 30.82C49.5879 30.8687 49.1385 30.4505 49.1104 29.9156C49.073 29.3808 49.4662 28.914 49.9811 28.8848L50.8517 28.8557C52.9395 28.8557 54.971 29.3419 56.8902 30.3144C58.7345 31.2479 60.4009 32.5802 61.8521 34.282C62.1984 34.6807 62.161 35.3031 61.7678 35.6532C61.5899 35.8088 61.3652 35.8866 61.1499 35.8866ZM35.0906 54.8312C35.1842 54.8604 35.2685 54.8701 35.3621 54.8701C35.7647 54.8701 36.1392 54.5978 36.2515 54.1699C36.7102 52.5848 36.9068 50.9705 36.8413 49.3854C36.7476 46.9931 37.0191 44.6397 37.6745 42.4031C38.3017 40.2539 39.2473 38.2992 40.4831 36.5877C40.792 36.1598 40.7078 35.5472 40.2958 35.2262C39.8839 34.9053 39.2941 34.9929 38.9852 35.4207C37.6183 37.3171 36.5792 39.4759 35.8864 41.8488C35.1749 44.2897 34.8659 46.857 34.9782 49.4729C35.0344 50.8344 34.8659 52.2347 34.4633 53.6156C34.3135 54.131 34.5944 54.6756 35.0906 54.8312ZM29.4998 64.2055C29.3032 64.2055 29.0972 64.1374 28.9286 64.0013C28.5167 63.6706 28.4418 63.0677 28.7601 62.6398L29.041 62.2703C29.1347 62.1438 29.2283 62.0271 29.3313 61.9007L29.3733 61.8491L29.4217 61.7896C29.4911 61.7044 29.5586 61.6227 29.6308 61.5409L29.9398 61.1908L30.024 61.0936C30.0663 61.0453 30.1119 60.9935 30.1607 60.9381C30.436 60.6257 30.8102 60.201 31.2317 59.664C31.5594 59.2459 32.1492 59.1875 32.5518 59.5279C32.9544 59.8683 33.0105 60.4809 32.6828 60.8991C32.2227 61.486 31.8183 61.9428 31.5235 62.2757C31.4764 62.3289 31.4321 62.3789 31.3909 62.4258L31.3066 62.5231C31.2933 62.5384 31.2799 62.5534 31.2666 62.5684L31.2152 62.6255C31.1528 62.6946 31.0918 62.7622 31.0351 62.8343C30.9883 62.8878 30.9438 62.9412 30.8994 62.9947L30.8994 62.9947L30.8827 63.0148C30.8437 63.0616 30.8046 63.1084 30.7636 63.1552L30.7582 63.1621L30.7582 63.1621C30.6757 63.2668 30.5931 63.3717 30.5015 63.4858L30.2487 63.8262C30.0521 64.079 29.7806 64.2055 29.4998 64.2055ZM55.6899 74.2509C55.8116 74.3092 55.9427 74.3384 56.0738 74.3384C56.4296 74.3384 56.7759 74.1244 56.9257 73.7743C58.1147 71.0514 59.1726 68.1048 60.062 65.0221C60.8016 62.4645 61.4382 59.8 61.9344 57.116C62.4305 54.4514 62.6927 52.3314 62.8238 51.0186C62.9593 49.7762 63.027 48.6679 63.0267 47.964C63.0267 47.8381 63.0246 47.725 63.0204 47.6262C62.9268 45.7104 62.5523 43.8627 61.8969 42.1317C61.2603 40.4494 60.3803 38.942 59.285 37.6584C58.1802 36.3553 56.907 35.3342 55.4934 34.6243C54.0235 33.8852 52.4601 33.5059 50.8592 33.5059L50.1945 33.5254C48.5468 33.6421 46.9552 34.1575 45.476 35.0522C44.0718 35.9079 42.8172 37.0749 41.7687 38.5336C40.7295 39.9729 39.9337 41.6163 39.4094 43.4251C38.9381 45.0459 38.6995 46.7327 38.6999 48.4473C38.6999 48.7106 38.7054 48.9745 38.7167 49.2389C38.7236 49.4017 38.7271 49.5668 38.7272 49.734C38.7268 50.913 38.5548 52.1996 38.2111 53.568C37.8554 54.9781 37.3311 56.4659 36.6383 57.9733C36.0298 59.3055 35.2996 60.6573 34.5225 61.8729C33.8204 62.9815 33.0902 63.9539 32.4255 64.693L31.611 65.6752C31.4753 65.8534 31.4094 66.0669 31.4102 66.2789C31.4091 66.5671 31.5315 66.8533 31.7701 67.0449C32.1229 67.3346 32.6194 67.3182 32.951 67.0218C33.0014 66.9804 33.0481 66.9334 33.0901 66.8811L33.7923 66.0253C34.5319 65.2084 35.3183 64.1484 36.086 62.9523C36.9098 61.6589 37.6869 60.2197 38.3329 58.8096C39.0725 57.1953 39.6435 55.5907 40.0274 54.0639C40.4674 52.3038 40.6546 50.6603 40.5891 49.153C40.5142 47.3831 40.7202 45.6521 41.1976 43.9989C41.6657 42.4138 42.3585 40.9648 43.2666 39.7103C44.1654 38.4655 45.2233 37.4639 46.4216 36.7345C47.648 35.9857 48.9587 35.5578 50.3255 35.4703L50.8686 35.4509C51.3164 35.4509 51.7609 35.4872 52.2007 35.5595C53.0448 35.6992 53.8713 35.9713 54.6695 36.3732C55.8585 36.9664 56.9351 37.8319 57.8807 38.9405C58.8356 40.0588 59.5939 41.3717 60.1556 42.8401C60.7361 44.3669 61.0731 46.0104 61.148 47.7122C61.1573 48.1206 61.1292 49.1806 60.9607 50.8046C60.8297 52.0688 60.5769 54.1402 60.0901 56.7367C59.6033 59.3624 58.9854 61.9589 58.2645 64.4581C57.4032 67.463 56.3734 70.3221 55.2218 72.9672C55.0065 73.4534 55.2218 74.0272 55.6899 74.2509ZM51.1155 74.6401C51.2559 74.7082 51.3963 74.747 51.5461 74.747C51.8832 74.747 52.2108 74.5623 52.4074 74.2219C53.7274 71.606 54.907 68.708 55.9088 65.6156C56.742 63.0482 57.4535 60.3642 58.0246 57.6219C58.5863 54.9184 58.8953 52.7206 59.0544 51.3592C59.2323 49.8421 59.3166 48.539 59.2885 47.8777C59.2323 46.5649 58.9702 45.3007 58.5208 44.1143C58.0808 42.957 57.4816 41.9165 56.7233 41.0315C55.9556 40.1271 55.0756 39.427 54.0926 38.931C53.0721 38.4156 51.9861 38.153 50.872 38.153L50.4133 38.1725C49.2618 38.2503 48.1571 38.6101 47.1272 39.2325C46.1536 39.8257 45.2829 40.6426 44.5621 41.6442C43.8506 42.6361 43.3076 43.7739 42.9425 45.0089C42.568 46.2829 42.4088 47.6249 42.465 48.9863C42.5118 50.2019 42.3433 51.7384 41.9688 53.4403C41.6037 55.1032 41.0326 56.9509 40.3305 58.7597C39.619 60.5879 38.767 62.3967 37.8589 63.9818C36.904 65.6545 35.9116 67.0645 34.9193 68.1634C34.5635 68.5524 34.5822 69.1651 34.9567 69.5346C35.3312 69.9042 35.921 69.8847 36.2767 69.4957C37.3627 68.2899 38.4393 66.7728 39.4598 64.9737C40.4147 63.3011 41.3041 61.4048 42.0531 59.489C42.7927 57.583 43.3825 55.638 43.7757 53.8681C44.197 51.9718 44.3748 50.2992 44.3187 48.8988C44.2718 47.761 44.403 46.6427 44.7119 45.573C45.0115 44.5519 45.4608 43.6183 46.0413 42.8112C46.6124 42.0137 47.2958 41.3816 48.0541 40.9148C48.8312 40.4383 49.655 40.1758 50.5163 40.1174L50.8533 40.1077C51.6866 40.1077 52.4917 40.3022 53.2594 40.6912C54.0177 41.0704 54.7011 41.6247 55.3003 42.3249C55.9088 43.0445 56.405 43.8906 56.7607 44.8339C57.1352 45.8161 57.3505 46.8761 57.3974 47.975C57.4161 48.3834 57.3693 49.4628 57.1727 51.1355C57.0229 52.458 56.7233 54.5878 56.1709 57.2232C55.6186 59.8877 54.9258 62.5037 54.1113 65.0029C53.1377 67.9981 51.9955 70.7988 50.7223 73.3272C50.4789 73.8038 50.6567 74.3872 51.1155 74.6401ZM46.7058 74.2976C46.8556 74.3948 47.0241 74.4337 47.1833 74.4337C47.5016 74.4337 47.8105 74.2684 47.9978 73.9086C49.4301 71.3996 50.7127 68.5308 51.8174 65.38C52.7068 62.8419 53.4839 60.1092 54.1205 57.2696C54.7103 54.6148 55.0661 52.4267 55.2533 51.0458C55.4593 49.5288 55.5529 48.4104 55.5435 48.0895C55.5061 47.3504 55.3562 46.6405 55.0941 45.9793C54.8413 45.3374 54.4856 44.7539 54.0456 44.2677C53.5962 43.7717 53.072 43.3828 52.5009 43.1299C51.8923 42.8576 51.2463 42.7409 50.6004 42.7798C49.945 42.8187 49.3178 43.0229 48.7467 43.373C48.2037 43.7037 47.7262 44.151 47.3237 44.7053C46.9398 45.2499 46.6402 45.8626 46.4436 46.5433C46.247 47.2337 46.1628 47.9534 46.1909 48.6924C46.2377 49.8302 46.0879 51.3376 45.7696 53.0686C45.4326 54.8676 44.9177 56.8515 44.2623 58.8159C43.5602 60.9553 42.7176 62.9975 41.7814 64.8938C40.7516 66.9651 39.6282 68.7934 38.4579 70.3104C38.1302 70.7383 38.1957 71.3413 38.5983 71.6816C39.0009 72.022 39.5907 71.9539 39.9184 71.5358C41.1729 69.9117 42.3618 67.9765 43.4478 65.7885C44.4308 63.8143 45.3015 61.6846 46.0411 59.4577C46.7151 57.4155 47.2581 55.3344 47.6139 53.4478C47.9603 51.571 48.1195 49.8983 48.0633 48.6146C48.0446 48.0992 48.1008 47.5838 48.2412 47.1073C48.3723 46.6503 48.5688 46.2418 48.8309 45.882C49.0837 45.5416 49.374 45.2596 49.7017 45.0651C50.02 44.8706 50.3663 44.754 50.7221 44.7345C51.0685 44.7151 51.4242 44.7831 51.7612 44.929C52.0983 45.0846 52.4073 45.318 52.6788 45.6194C52.9596 45.9404 53.1936 46.3196 53.3622 46.7475C53.5494 47.2046 53.6524 47.6908 53.6711 48.1965C53.6711 48.3521 53.6056 49.2467 53.3903 50.8027C53.203 52.1447 52.866 54.2841 52.2855 56.8612C51.6676 59.6327 50.9093 62.2876 50.048 64.7576C48.9808 67.8015 47.745 70.5536 46.3781 72.9653C46.116 73.4321 46.2564 74.0253 46.7058 74.2976ZM42.7776 71.1785C42.5061 71.6258 42.6184 72.2093 43.0397 72.5011C43.4704 72.8025 44.0696 72.6858 44.3504 72.2288C49.434 63.885 51.2221 52.8961 51.6715 49.5411C51.7464 48.9965 51.3719 48.5005 50.8476 48.4422C50.3421 48.3936 49.8927 48.7534 49.8179 49.2688C49.3778 52.4585 47.599 63.2334 42.7776 71.1785Z" fill="#FFE0E6"/>
</svg>
