<svg width="97" height="97" viewBox="0 0 97 97" fill="none" xmlns="http://www.w3.org/2000/svg">
<path d="M48.4985 96.4583C75.0082 96.4583 96.4985 74.968 96.4985 48.4583C96.4985 21.9486 75.0082 0.458313 48.4985 0.458313C21.9889 0.458313 0.498535 21.9486 0.498535 48.4583C0.498535 74.968 21.9889 96.4583 48.4985 96.4583Z" fill="#0C53E2"/>
<path fill-rule="evenodd" clip-rule="evenodd" d="M62.3006 73.6115C64.2098 72.9311 66.0346 72.0779 67.754 71.0519C71.6251 58.8155 72.3213 48.0047 72.2263 45.8879C71.604 32.1935 62.3534 21.4583 51.1619 21.4583C50.7927 21.4583 50.4235 21.4691 50.0227 21.5015C38.4198 22.2683 29.4856 34.4723 30.0974 48.6851C30.2636 52.5523 28.0495 55.1456 26.5234 56.9329C25.9186 57.6413 25.4218 58.2232 25.2242 58.7075C24.9254 59.0543 24.6548 59.4107 24.3769 59.7767L24.3276 59.8415C25.1504 61.2131 26.0786 62.5199 27.0912 63.7403C28.0827 64.9391 29.1586 66.0731 30.2978 67.1099C31.437 68.1575 32.6501 69.1187 33.9264 69.9827C35.2238 70.8683 36.5845 71.6459 38.0085 72.3371C39.4114 73.0067 40.867 73.5791 42.3648 74.0435C43.8732 74.5187 45.4237 74.8751 47.0165 75.1127C48.5354 75.3395 50.0965 75.4583 51.6893 75.4583C51.7315 75.4583 51.7737 75.4556 51.8159 75.4529C51.8581 75.4502 51.9002 75.4475 51.9424 75.4475C53.6723 75.4367 55.3811 75.2855 57.0371 74.9939C58.8514 74.6915 60.6129 74.2163 62.3006 73.6115ZM26.6433 59.3716C26.8118 59.5154 27.0178 59.5825 27.2237 59.5825C27.4952 59.5825 27.7761 59.4579 27.9727 59.2279L28.8433 58.1447L28.8995 57.9913C28.9276 57.9242 28.9932 57.7996 29.1523 57.5791C29.279 57.4112 29.4235 57.2372 29.5811 57.0475L29.5812 57.0474L29.5812 57.0474L29.5814 57.0471L29.5818 57.0466L29.5823 57.0461L29.6429 56.9731L29.7046 56.8985L29.8451 56.726L29.9755 56.5727C30.126 56.396 30.2851 56.2092 30.4443 56.0167C30.7158 55.6908 30.9873 55.3361 31.2588 54.9623C31.5677 54.5405 31.8204 54.1283 32.0545 53.7161C32.326 53.2369 32.5507 52.748 32.7286 52.2591C32.9346 51.7127 33.0843 51.1472 33.1779 50.5816C33.2809 49.9586 33.3184 49.3259 33.2903 48.6837C33.2716 48.1469 32.8222 47.7443 32.3167 47.7635C31.7924 47.7826 31.3992 48.2332 31.4179 48.7604C31.446 49.2684 31.4179 49.7669 31.3337 50.2557C31.2588 50.6967 31.1371 51.1472 30.9779 51.5785C30.8281 51.9715 30.6408 52.3741 30.4255 52.7672C30.2289 53.1122 30.0043 53.4669 29.7421 53.8312C29.4987 54.1667 29.2459 54.483 29.0025 54.7801C28.8522 54.9633 28.7019 55.1409 28.56 55.3086L28.5598 55.3088L28.4314 55.4607L28.2817 55.6333C28.0382 55.9208 27.8229 56.1796 27.645 56.4193C27.4672 56.6685 27.3361 56.889 27.2331 57.0903L26.4935 58.0201C26.1752 58.4418 26.2407 59.0361 26.6433 59.3716ZM33.4307 40.6892C33.3371 40.6892 33.2528 40.6796 33.1592 40.6509C32.663 40.4975 32.3821 39.9607 32.5319 39.4527C32.9532 38.0148 33.4962 36.6153 34.1515 35.3021C34.7881 33.9984 35.5371 32.7523 36.3703 31.6116C37.2035 30.4709 38.1397 29.4261 39.1321 28.4963C40.1432 27.5569 41.2292 26.7326 42.3714 26.052C43.5323 25.3523 44.7587 24.7963 46.0132 24.3937C47.3051 23.9815 48.6345 23.7227 49.9733 23.6364L51.0406 23.5981C52.3325 23.5981 53.6338 23.7515 54.8883 24.0582C55.3939 24.1828 55.7028 24.7004 55.5811 25.2085C55.4594 25.7261 54.9538 26.0424 54.4577 25.9178C53.3342 25.6494 52.1921 25.5152 51.0406 25.5152L50.9189 24.5566L50.9282 25.5152L50.1044 25.544C48.906 25.6206 47.7171 25.8507 46.5749 26.215C45.4608 26.5792 44.3655 27.0777 43.3263 27.7007C42.3059 28.3142 41.3135 29.0619 40.4054 29.9054C39.4973 30.7489 38.6453 31.7075 37.8776 32.7523C37.11 33.7971 36.4172 34.9474 35.8274 36.1456C35.2282 37.363 34.7226 38.657 34.3294 39.999C34.2077 40.4208 33.8333 40.6892 33.4307 40.6892ZM69.3245 52.2207C69.3526 52.2303 69.3901 52.2303 69.4275 52.2303C69.8956 52.2303 70.2982 51.8756 70.345 51.3867C70.4386 50.524 70.5135 49.7572 70.5603 49.0766C70.6071 48.396 70.6352 47.8113 70.654 47.332C70.6727 46.8336 70.6726 46.4501 70.6633 46.2009C70.5977 44.6576 70.4012 43.1144 70.0922 41.6286C69.7926 40.1716 69.3713 38.7433 68.847 37.3822C68.3321 36.0402 67.7049 34.7461 66.9934 33.5479C66.2913 32.3497 65.4861 31.2282 64.6061 30.2122C63.7354 29.1961 62.7712 28.2663 61.7507 27.4611C61.3388 27.1352 60.749 27.2119 60.44 27.6336C60.1217 28.0458 60.1966 28.6497 60.6085 28.9756C61.5354 29.7041 62.4061 30.5476 63.2112 31.4774C64.0163 32.4072 64.7559 33.4425 65.4019 34.5353C66.0666 35.6472 66.6376 36.8358 67.1151 38.0723C67.6019 39.3376 67.9951 40.6604 68.276 42.012C68.5662 43.4019 68.7441 44.8302 68.8096 46.2776C68.8178 46.4702 68.8117 46.7433 68.8038 47.0969L68.8003 47.2553C68.7815 47.7059 68.7535 48.2618 68.7067 48.9136C68.6598 49.5751 68.5943 50.3227 68.5007 51.1567C68.4445 51.6839 68.8096 52.1632 69.3245 52.2207ZM65.767 69.5418C65.6733 69.5418 65.5704 69.5227 65.4767 69.4939C64.9806 69.3309 64.7184 68.7942 64.8776 68.2861C65.2895 66.9825 65.6734 65.6501 66.0291 64.3273C66.3568 63.0907 66.6657 61.8254 66.9372 60.5601C67.1993 59.3811 67.4334 58.2021 67.6394 57.0614C67.733 56.5438 68.2198 56.1891 68.7254 56.2945C69.2309 56.3904 69.5679 56.8888 69.4743 57.4065C69.2684 58.5759 69.0249 59.7837 68.7628 60.9819C68.4819 62.2759 68.1636 63.57 67.836 64.8257C67.4802 66.1773 67.087 67.5384 66.6657 68.8708C66.5347 69.283 66.1602 69.5418 65.767 69.5418ZM60.5991 71.7465C60.7114 71.7945 60.8238 71.8136 60.9362 71.8136C61.3106 71.8136 61.6664 71.5836 61.8162 71.2002C62.8366 68.5258 63.7354 65.6789 64.4843 62.7457C65.1116 60.3013 65.6358 57.7899 66.0571 55.2881C66.4691 52.8054 66.6844 50.8308 66.7967 49.6134C66.9184 48.2523 66.9746 47.0732 66.9465 46.4502C66.9184 45.923 66.4597 45.5204 65.9635 45.5395C65.4486 45.5683 65.0461 46.0188 65.0741 46.546C65.0929 46.9582 65.0648 47.9359 64.9337 49.4409C64.8307 50.6199 64.6154 52.537 64.2129 54.9622C63.8009 57.4161 63.286 59.8604 62.6681 62.2568C61.9285 65.1229 61.0579 67.9027 60.0655 70.51C59.8783 70.9989 60.1216 71.5548 60.5991 71.7465ZM61.3388 35.1391C61.0766 35.1391 60.8239 35.0337 60.6366 34.8132C59.4342 33.4203 58.0672 32.3138 56.5665 31.5175C56.4664 31.4644 56.3658 31.4127 56.2645 31.3624C54.6075 30.538 52.8475 30.1163 51.0406 30.1163L50.2916 30.145C49.8089 30.19 49.3838 29.8305 49.3094 29.351C49.3044 29.319 49.301 29.2865 49.2993 29.2536C49.2618 28.7264 49.655 28.2663 50.1699 28.2375L51.0406 28.2087C53.1283 28.2087 55.1599 28.688 57.0791 29.6466C58.9234 30.5668 60.5898 31.88 62.0409 33.5575C62.3873 33.9505 62.3498 34.564 61.9566 34.9091L61.9566 34.9091C61.7787 35.0624 61.5541 35.1391 61.3388 35.1391ZM35.2656 53.8119C35.3592 53.8406 35.4435 53.8502 35.5371 53.8502C35.9397 53.8502 36.3142 53.5818 36.4265 53.1601C36.8853 51.5976 37.0818 50.0064 37.0163 48.444C36.9227 46.0859 37.1942 43.7662 37.8495 41.5615C38.4768 39.4431 39.4223 37.5164 40.6581 35.8293C40.9671 35.4075 40.8828 34.8036 40.4709 34.4873C40.0589 34.171 39.4692 34.2573 39.1602 34.679C37.7934 36.5482 36.7542 38.6762 36.0614 41.0151C35.3499 43.4211 35.0409 45.9517 35.1533 48.5302C35.2094 49.8722 35.0409 51.2525 34.6384 52.6137C34.4886 53.1217 34.7694 53.6585 35.2656 53.8119ZM29.6859 63.0524C29.4893 63.0524 29.2833 62.9854 29.1148 62.8512C28.7029 62.5252 28.628 61.9309 28.9463 61.5092L29.2272 61.1449C29.3208 61.0203 29.4144 60.9053 29.5174 60.7807L29.5594 60.7298L29.5595 60.7297L29.5596 60.7295L29.592 60.6903C29.667 60.5995 29.7393 60.5127 29.817 60.426L30.1259 60.0809L30.2102 59.9851C30.2523 59.9376 30.2978 59.8867 30.3464 59.8324L30.3468 59.8319L30.347 59.8317C30.6222 59.5238 30.9964 59.1052 31.4179 58.576C31.7455 58.1638 32.3354 58.1063 32.7379 58.4418C33.1405 58.7773 33.1966 59.3812 32.869 59.7934C32.4089 60.3719 32.0044 60.8221 31.7097 61.1503L31.7092 61.1509L31.709 61.1511L31.7087 61.1514L31.6917 61.1704C31.6513 61.2154 31.613 61.258 31.577 61.2983L31.4928 61.3941C31.4622 61.4286 31.4316 61.462 31.4014 61.4951L31.4013 61.4951C31.339 61.5632 31.278 61.6299 31.2213 61.7009C31.1745 61.7536 31.13 61.8063 31.0855 61.859L31.0855 61.859L31.0855 61.8591C31.041 61.9118 30.9966 61.9645 30.9498 62.0172L30.9444 62.024C30.8619 62.1272 30.7793 62.2306 30.6877 62.3431L30.4349 62.6786C30.2383 62.9278 29.9668 63.0524 29.6859 63.0524ZM55.8713 72.9542C55.993 73.0117 56.1241 73.0405 56.2551 73.0405C56.6109 73.0405 56.9573 72.8296 57.107 72.4845C58.296 69.8006 59.3539 66.8961 60.2433 63.8575C60.9829 61.3365 61.6195 58.71 62.1157 56.0644C62.6119 53.438 62.874 51.3483 63.0051 50.0542C63.1407 48.8293 63.2083 47.7365 63.208 47.0426C63.2081 46.9183 63.206 46.8066 63.2017 46.709C63.1081 44.8206 62.7336 42.9994 62.0783 41.2932C61.4416 39.6348 60.5616 38.1491 59.4663 36.8838C58.3616 35.5993 57.0883 34.5928 55.6747 33.8931C54.2049 33.1646 52.6414 32.7907 51.0405 32.7907L50.3758 32.8099C48.7281 32.9249 47.1366 33.433 45.6574 34.3148C44.2531 35.1584 42.9985 36.3087 41.95 37.7465C40.9108 39.1652 40.115 40.7851 39.5908 42.568C39.1193 44.1659 38.8808 45.8288 38.8812 47.519C38.8812 47.7788 38.8867 48.0392 38.898 48.3001C38.9049 48.4603 38.9085 48.6228 38.9085 48.7873C38.9081 49.9493 38.736 51.2173 38.3925 52.5658C38.0367 53.9557 37.5124 55.4223 36.8197 56.9081C36.2111 58.2213 35.4809 59.5537 34.7038 60.7519C34.0017 61.8447 33.2715 62.8032 32.6068 63.5317L31.7923 64.4999C31.6565 64.6757 31.5906 64.8865 31.5916 65.0956C31.5902 65.3799 31.7126 65.6623 31.9514 65.8513C32.3108 66.1422 32.8194 66.12 33.1508 65.8118C33.1942 65.7749 33.2346 65.7337 33.2714 65.6885L33.9736 64.845C34.7132 64.0398 35.4996 62.9949 36.2673 61.8159C37.0911 60.541 37.8682 59.1224 38.5142 57.7324C39.2538 56.1412 39.8249 54.5596 40.2087 53.0547C40.6487 51.3197 40.8359 49.6997 40.7704 48.214C40.6955 46.4694 40.9015 44.7631 41.3789 43.1336C41.847 41.5711 42.5398 40.1429 43.448 38.9063C44.3467 37.6794 45.4046 36.6921 46.6029 35.9731C47.8294 35.2351 49.14 34.8133 50.5069 34.727L51.0499 34.7079C51.0918 34.7079 51.1338 34.7082 51.1756 34.7088C52.4393 34.7292 53.6756 35.0352 54.8508 35.6183C56.0398 36.2031 57.1164 37.0562 58.062 38.1489C59.0169 39.2513 59.7752 40.5453 60.3369 41.9928C60.9174 43.4977 61.2544 45.1177 61.3293 46.7951C61.3387 47.1977 61.3106 48.2426 61.1421 49.8434C61.011 51.0895 60.7582 53.1312 60.2714 55.6906C59.7846 58.2787 59.1667 60.838 58.4458 63.3015C57.5845 66.2635 56.5547 69.0817 55.4032 71.6889C55.1878 72.1682 55.4032 72.7338 55.8713 72.9542ZM51.3026 73.3378C51.4431 73.4049 51.5835 73.4432 51.7333 73.4432C52.0703 73.4432 52.398 73.2611 52.5946 72.9256C53.9146 70.347 55.0942 67.4905 56.0959 64.4423C56.9292 61.9117 57.6407 59.2661 58.2118 56.563C58.7735 53.8982 59.0825 51.7318 59.2416 50.3898C59.4195 48.8945 59.5038 47.61 59.4757 46.9582C59.4195 45.6641 59.1574 44.418 58.708 43.2486C58.268 42.1079 57.6688 41.0822 56.9104 40.2099C56.1428 39.3185 55.2627 38.6283 54.2797 38.1395C53.2593 37.6314 52.1733 37.3726 51.0592 37.3726L50.6005 37.3918C49.449 37.4685 48.3442 37.8231 47.3144 38.4366C46.3408 39.0213 45.4701 39.8265 44.7492 40.8138C44.0377 41.7916 43.4948 42.9131 43.1296 44.1304C42.7552 45.3862 42.596 46.709 42.6522 48.051C42.699 49.2492 42.5305 50.7637 42.156 52.4412C41.7909 54.0803 41.2198 55.9016 40.5177 57.6845C39.8062 59.4866 38.9542 61.2695 38.0461 62.8319C37.0912 64.4807 36.0988 65.8706 35.1064 66.9537C34.7507 67.3372 34.7694 67.9411 35.1438 68.3053L35.1439 68.3054C35.5184 68.6696 36.1082 68.6504 36.4639 68.267C37.5499 67.0784 38.6265 65.583 39.647 63.8097C40.6019 62.1609 41.4913 60.2918 42.2402 58.4034C42.9798 56.5246 43.5697 54.6075 43.9629 52.8629C44.3842 50.9937 44.562 49.345 44.5058 47.9647C44.459 46.8432 44.5901 45.7408 44.8991 44.6864C45.1986 43.6799 45.648 42.7597 46.2284 41.9641C46.7281 41.2763 47.3139 40.7133 47.9605 40.2751C48.0529 40.2125 48.1465 40.1524 48.2413 40.0949C49.0183 39.6252 49.8422 39.3664 50.7035 39.3089L51.0405 39.2993C51.8737 39.2993 52.6789 39.491 53.4466 39.8744C54.2049 40.2483 54.8883 40.7947 55.4875 41.4848C56.096 42.1941 56.5922 43.0281 56.9479 43.9579C57.299 44.8655 57.5102 45.8406 57.5738 46.8514C57.578 46.9188 57.5816 46.9863 57.5845 47.054C57.6033 47.4566 57.5565 48.5206 57.3599 50.1694C57.2101 51.473 56.9105 53.5723 56.3581 56.17C55.8058 58.7964 55.113 61.3749 54.2985 63.8384C53.3248 66.7908 52.1827 69.5514 50.9094 72.0437C50.666 72.5134 50.8439 73.0885 51.3026 73.3378ZM46.8838 73.0022C47.0336 73.0981 47.2022 73.1364 47.3613 73.1364C47.6796 73.1364 47.9886 72.9734 48.1758 72.6188C49.6082 70.1457 50.8907 67.3179 51.9954 64.2122C52.8848 61.7104 53.6619 59.0168 54.2985 56.2178C54.8883 53.601 55.2441 51.4442 55.4313 50.083C55.6373 48.5877 55.7309 47.4853 55.7215 47.169C55.6841 46.4405 55.5343 45.7408 55.2721 45.089C55.0194 44.4563 54.6636 43.8812 54.2236 43.4019C53.7742 42.913 53.25 42.5296 52.6789 42.2804C52.0704 42.012 51.4244 41.8969 50.7784 41.9353C50.1231 41.9736 49.4958 42.1749 48.9247 42.52C48.3817 42.8459 47.9043 43.2868 47.5017 43.8332C47.1179 44.37 46.8183 44.9739 46.6217 45.6449C46.4251 46.3255 46.3409 47.0348 46.3689 47.7633C46.4158 48.8848 46.2659 50.3706 45.9476 52.0768C45.6106 53.8502 45.0957 55.8056 44.4404 57.7419C43.7382 59.8508 42.8956 61.8637 41.9594 63.7329C40.9296 65.7747 39.8062 67.5767 38.6359 69.0721C38.3083 69.4939 38.3738 70.0882 38.7763 70.4237C39.1789 70.7592 39.7687 70.6921 40.0964 70.2799C41.3509 68.6791 42.5398 66.7716 43.6258 64.6148C44.6088 62.6689 45.4795 60.5697 46.2191 58.3746C46.8932 56.3616 47.4362 54.3103 47.7919 52.4507C48.1383 50.6007 48.2975 48.9519 48.2413 47.6866C48.2226 47.1786 48.2788 46.6706 48.4192 46.2009C48.5503 45.7503 48.7468 45.3478 49.009 44.9931C49.2617 44.6576 49.552 44.3796 49.8797 44.1879C50.198 43.9962 50.5444 43.8812 50.9001 43.862C51.2465 43.8428 51.6022 43.9099 51.9393 44.0537C52.2763 44.2071 52.5853 44.4371 52.8568 44.7343C53.1376 45.0506 53.3717 45.4244 53.5402 45.8462C53.7274 46.2967 53.8304 46.776 53.8492 47.2745C53.8492 47.4278 53.7836 48.3097 53.5683 49.8434C53.3811 51.1662 53.044 53.275 52.4635 55.8152C51.8456 58.5471 51.0874 61.164 50.2261 63.5987C49.1588 66.599 47.923 69.3117 46.5561 71.689C46.294 72.1491 46.4345 72.7338 46.8838 73.0022ZM42.9611 69.9254C42.6896 70.3663 42.8019 70.9414 43.2232 71.229C43.6539 71.5261 44.2531 71.4111 44.5339 70.9606C49.6175 62.7362 51.4056 51.9044 51.855 48.5974C51.9299 48.0606 51.5554 47.5718 51.0311 47.5142C50.5256 47.4663 50.0762 47.821 50.0014 48.329C49.5613 51.4731 47.7825 62.0939 42.9611 69.9254Z" fill="#E1E1FF"/>
</svg>
