<svg width="97" height="97" viewBox="0 0 97 97" fill="none" xmlns="http://www.w3.org/2000/svg">
<path d="M48.4987 96.4583C75.0083 96.4583 96.4987 74.968 96.4987 48.4583C96.4987 21.9487 75.0083 0.458344 48.4987 0.458344C21.989 0.458344 0.498657 21.9487 0.498657 48.4583C0.498657 74.968 21.989 96.4583 48.4987 96.4583Z" fill="#0C53E2"/>
<path d="M76.0986 62.2583C76.0986 66.6483 73.0786 70.4783 68.8986 71.5483V72.4583C68.8986 74.1183 67.5586 75.4583 65.8986 75.4583C64.2386 75.4583 62.8986 74.1183 62.8986 72.4583V52.0583C62.8986 50.3983 64.2386 49.0583 65.8986 49.0583C67.5586 49.0583 68.8986 50.3983 68.8986 52.0583V52.9683C70.2386 53.3083 71.4686 53.9283 72.4986 54.7783V47.8583C72.4986 41.4483 69.9986 35.4183 65.4686 30.8883C60.9486 26.3483 54.9086 23.8583 48.4986 23.8583C35.2586 23.8583 24.4986 34.6183 24.4986 47.8583V54.7783C25.5286 53.9283 26.7586 53.2983 28.0986 52.9683V52.0583C28.0986 50.3983 29.4386 49.0583 31.0986 49.0583C32.7586 49.0583 34.0986 50.3983 34.0986 52.0583V72.4583C34.0986 74.1183 32.7586 75.4583 31.0986 75.4583C29.4386 75.4583 28.0986 74.1183 28.0986 72.4583V71.5483C23.9186 70.4783 20.8986 66.6483 20.8986 62.2583C20.8986 60.5983 21.3286 59.0183 22.0986 57.6383V47.8583C22.0986 33.2983 33.9385 21.4583 48.4986 21.4583C55.5586 21.4583 62.1785 24.2083 67.1685 29.1883C72.1485 34.1783 74.8986 40.8083 74.8986 47.8583V57.6383C75.6686 59.0183 76.0986 60.6083 76.0986 62.2583Z" fill="#E1E1FF"/>
</svg>
