<svg width="26" height="26" viewBox="0 0 26 26" fill="none" xmlns="http://www.w3.org/2000/svg">
<path d="M12.6885 25.8989C19.592 25.8989 25.1885 20.3025 25.1885 13.3989C25.1885 6.49537 19.592 0.898926 12.6885 0.898926C5.78492 0.898926 0.188477 6.49537 0.188477 13.3989C0.188477 20.3025 5.78492 25.8989 12.6885 25.8989Z" fill="#0080FF"/>
<path d="M19.876 16.9927C19.876 18.1359 19.0895 19.1333 18.001 19.4119V19.6489C18.001 20.0812 17.652 20.4302 17.2197 20.4302C16.7874 20.4302 16.4385 20.0812 16.4385 19.6489V14.3364C16.4385 13.9041 16.7874 13.5552 17.2197 13.5552C17.652 13.5552 18.001 13.9041 18.001 14.3364V14.5734C18.3499 14.6619 18.6702 14.8234 18.9385 15.0448V13.2427C18.9385 11.5734 18.2874 10.0031 17.1077 8.8234C15.9307 7.64111 14.3577 6.99268 12.6885 6.99268C9.24056 6.99268 6.43847 9.79476 6.43847 13.2427V15.0448C6.7067 14.8234 7.02702 14.6593 7.37598 14.5734V14.3364C7.37598 13.9041 7.72493 13.5552 8.15723 13.5552C8.58952 13.5552 8.93848 13.9041 8.93848 14.3364V19.6489C8.93848 20.0812 8.58952 20.4302 8.15723 20.4302C7.72493 20.4302 7.37598 20.0812 7.37598 19.6489V19.4119C6.28743 19.1333 5.50098 18.1359 5.50098 16.9927C5.50098 16.5604 5.61295 16.1489 5.81348 15.7895V13.2427C5.81348 9.45101 8.89681 6.36768 12.6885 6.36768C14.527 6.36768 16.251 7.08382 17.5505 8.3807C18.8473 9.68018 19.5635 11.4067 19.5635 13.2427V15.7895C19.764 16.1489 19.876 16.563 19.876 16.9927Z" fill="#E0F0FF"/>
</svg>
