<svg width="40" height="40" viewBox="0 0 40 40" fill="none" xmlns="http://www.w3.org/2000/svg">
<path d="M36.1054 13.2188C35.229 11.1271 33.954 9.22588 32.3515 7.62113C30.7538 6.01358 28.8559 4.73549 26.7656 3.85941C24.6242 2.95758 22.3235 2.4953 20 2.50004H19.9218C17.5585 2.51175 15.2734 2.9805 13.121 3.90238C11.0487 4.78744 9.16859 6.0678 7.58589 7.67191C5.99891 9.27306 4.73852 11.1676 3.87496 13.25C2.97853 15.4155 2.52431 17.7384 2.53902 20.0821C2.55074 22.793 3.19918 25.4844 4.41011 27.8907V33.8282C4.41011 34.8204 5.2148 35.625 6.20308 35.625H12.1328C14.5502 36.8449 17.218 37.4868 19.9257 37.5H20.0078C22.3437 37.5 24.6054 37.0469 26.7382 36.1602C28.818 35.2946 30.7088 34.0314 32.3046 32.4414C33.914 30.8438 35.1796 28.9766 36.0664 26.8946C36.9843 24.7383 37.4531 22.4454 37.4648 20.0782C37.4726 17.6993 37.0117 15.3907 36.1054 13.2188ZM12.2031 21.875C11.1718 21.875 10.332 21.0352 10.332 20C10.332 18.9649 11.1718 18.125 12.2031 18.125C13.2343 18.125 14.0742 18.9649 14.0742 20C14.0742 21.0352 13.2382 21.875 12.2031 21.875ZM20 21.875C18.9687 21.875 18.1289 21.0352 18.1289 20C18.1289 18.9649 18.9687 18.125 20 18.125C21.0312 18.125 21.8711 18.9649 21.8711 20C21.8711 21.0352 21.0312 21.875 20 21.875ZM27.7968 21.875C26.7656 21.875 25.9257 21.0352 25.9257 20C25.9257 18.9649 26.7656 18.125 27.7968 18.125C28.8281 18.125 29.6679 18.9649 29.6679 20C29.6679 21.0352 28.8281 21.875 27.7968 21.875Z" fill="#FFDB80"/>
</svg>
