<svg width="26" height="26" viewBox="0 0 26 26" fill="none" xmlns="http://www.w3.org/2000/svg">
<path d="M13.0649 25.8989C19.9685 25.8989 25.5649 20.3025 25.5649 13.3989C25.5649 6.49537 19.9685 0.898926 13.0649 0.898926C6.16138 0.898926 0.564941 6.49537 0.564941 13.3989C0.564941 20.3025 6.16138 25.8989 13.0649 25.8989Z" fill="#002BFF"/>
<path d="M17.4892 13.701C17.4892 13.5734 17.3851 13.4692 17.2575 13.4692C17.1299 13.4692 17.0257 13.5734 17.0257 13.701C17.0257 15.8833 15.2497 17.6593 13.0674 17.6593C10.8851 17.6593 9.10904 15.8833 9.10904 13.701C9.10904 13.5734 9.00489 13.4692 8.87728 13.4692C8.74968 13.4692 8.64551 13.5734 8.64551 13.701C8.64551 16.0604 10.5049 17.9901 12.8356 18.1125V19.964H11.3929C11.2653 19.964 11.1611 20.0682 11.1611 20.1958C11.1611 20.3234 11.2653 20.4276 11.3929 20.4276H14.7445C14.8721 20.4276 14.9762 20.3234 14.9762 20.1958C14.9762 20.0682 14.8721 19.964 14.7445 19.964H13.3018V18.1125C15.6299 17.9927 17.4892 16.063 17.4892 13.701Z" fill="#E0E6FF"/>
<path d="M12.937 10.7688C12.937 10.8964 13.0412 11.0006 13.1688 11.0006H15.6844V13.4693H13.1688C13.0412 13.4693 12.937 13.5735 12.937 13.7011C12.937 13.8287 13.0412 13.9329 13.1688 13.9329H15.6818C15.6141 15.3183 14.4683 16.425 13.0646 16.425C12.3433 16.425 11.687 16.1308 11.2131 15.6568C10.7391 15.1855 10.4448 14.5292 10.4448 13.8053V12.4667H12.7495C12.8771 12.4667 12.9813 12.3625 12.9813 12.2349C12.9813 12.1073 12.8771 12.0032 12.7495 12.0032H10.4448V9.32609H12.7495C12.8771 9.32609 12.9813 9.22192 12.9813 9.09432C12.9813 8.96672 12.8771 8.86255 12.7495 8.86255H10.4474C10.5151 7.47713 11.661 6.37036 13.0646 6.37036C14.5099 6.37036 15.6844 7.54484 15.6844 8.99015V10.5396H13.1688C13.0412 10.537 12.937 10.6412 12.937 10.7688Z" fill="#E0E6FF"/>
</svg>
