<svg width="97" height="97" viewBox="0 0 97 97" fill="none" xmlns="http://www.w3.org/2000/svg">
<path d="M48.4985 96.4583C75.0082 96.4583 96.4985 74.968 96.4985 48.4583C96.4985 21.9487 75.0082 0.458344 48.4985 0.458344C21.9889 0.458344 0.498535 21.9487 0.498535 48.4583C0.498535 74.968 21.9889 96.4583 48.4985 96.4583Z" fill="#0C53E2"/>
<path d="M65.4885 49.6184C65.4885 49.1284 65.0886 48.7284 64.5986 48.7284C64.1086 48.7284 63.7086 49.1284 63.7086 49.6184C63.7086 57.9984 56.8885 64.8184 48.5085 64.8184C40.1285 64.8184 33.3085 57.9984 33.3085 49.6184C33.3085 49.1284 32.9086 48.7284 32.4186 48.7284C31.9286 48.7284 31.5286 49.1284 31.5286 49.6184C31.5286 58.6784 38.6685 66.0884 47.6185 66.5584V73.6684H42.0786C41.5886 73.6684 41.1885 74.0684 41.1885 74.5584C41.1885 75.0484 41.5886 75.4484 42.0786 75.4484H54.9485C55.4385 75.4484 55.8386 75.0484 55.8386 74.5584C55.8386 74.0684 55.4385 73.6684 54.9485 73.6684H49.4086V66.5584C58.3486 66.0984 65.4885 58.6884 65.4885 49.6184Z" fill="#E1E1FF"/>
<path d="M48.0085 38.3584C48.0085 38.8484 48.4085 39.2484 48.8985 39.2484H58.5585V48.7284H48.8985C48.4085 48.7284 48.0085 49.1284 48.0085 49.6184C48.0085 50.1084 48.4085 50.5084 48.8985 50.5084H58.5485C58.2885 55.8284 53.8885 60.0784 48.4985 60.0784C45.7285 60.0784 43.2085 58.9484 41.3885 57.1284C39.5685 55.3184 38.4385 52.7984 38.4385 50.0184V44.8784H47.2885C47.7785 44.8784 48.1785 44.4784 48.1785 43.9884C48.1785 43.4984 47.7785 43.0984 47.2885 43.0984H38.4385V32.8184H47.2885C47.7785 32.8184 48.1785 32.4184 48.1785 31.9284C48.1785 31.4384 47.7785 31.0384 47.2885 31.0384H38.4485C38.7085 25.7184 43.1085 21.4684 48.4985 21.4684C54.0485 21.4684 58.5585 25.9784 58.5585 31.5284V37.4784H48.8985C48.4085 37.4684 48.0085 37.8684 48.0085 38.3584Z" fill="#E1E1FF"/>
</svg>
