<svg width="97" height="97" viewBox="0 0 97 97" fill="none" xmlns="http://www.w3.org/2000/svg">
<path d="M48.4987 96.4283C75.0083 96.4283 96.4987 74.938 96.4987 48.4283C96.4987 21.9186 75.0083 0.428314 48.4987 0.428314C21.989 0.428314 0.498657 21.9186 0.498657 48.4283C0.498657 74.938 21.989 96.4283 48.4987 96.4283Z" fill="#0C53E2"/>
<path d="M74.0786 45.8383H48.4586V34.1383C48.4586 27.1483 42.7686 21.4583 35.7686 21.4583H34.6186C27.6186 21.4583 21.9286 27.1483 21.9286 34.1383V45.8483C21.9286 46.3883 22.3686 46.8283 22.9086 46.8283C23.4486 46.8283 23.8886 46.3883 23.8886 45.8483V34.1383C23.8886 28.2283 28.6986 23.4183 34.6186 23.4183H35.7686C41.6986 23.4183 46.4986 28.2283 46.4986 34.1383V45.8483H44.9486C44.4086 45.8483 43.9686 46.2883 43.9686 46.8283V59.4883C43.9686 67.8583 50.3986 75.0483 58.7586 75.4483C67.6786 75.8683 75.0486 68.7483 75.0486 59.9283V46.8283C75.0586 46.2783 74.6186 45.8383 74.0786 45.8383ZM60.2686 59.4883V64.9183C60.2686 65.3283 59.9386 65.6583 59.5286 65.6583C59.1086 65.6583 58.7786 65.3283 58.7786 64.9183V59.4883C57.9986 59.1483 57.4886 58.2883 57.6886 57.3483C57.8486 56.6483 58.4286 56.0683 59.1386 55.9183C60.3386 55.6883 61.4086 56.6083 61.4086 57.7683C61.3986 58.5383 60.9286 59.1983 60.2686 59.4883Z" fill="#E1E1FF"/>
</svg>
