<svg width="97" height="97" viewBox="0 0 97 97" fill="none" xmlns="http://www.w3.org/2000/svg">
<path d="M48.4987 96.4583C75.0083 96.4583 96.4987 74.968 96.4987 48.4583C96.4987 21.9486 75.0083 0.458313 48.4987 0.458313C21.989 0.458313 0.498657 21.9486 0.498657 48.4583C0.498657 74.968 21.989 96.4583 48.4987 96.4583Z" fill="#0C53E2"/>
<path d="M63.7487 34.5683C64.5987 33.7183 66.0487 34.3183 66.0487 35.5183V72.7583C66.0487 74.2383 64.9387 75.4583 63.5687 75.4583H38.8386C37.4586 75.4583 36.3586 74.2383 36.3586 72.7583V62.5183C36.3586 62.1583 36.4987 61.8183 36.7587 61.5683L63.7487 34.5683Z" fill="#E1E1FF"/>
<path d="M60.6487 24.1583V31.6983C60.6487 32.0583 60.5087 32.3983 60.2487 32.6483L33.2487 59.6483C32.3987 60.4983 30.9487 59.8983 30.9487 58.6983V24.1583C30.9487 22.6783 32.0587 21.4583 33.4287 21.4583H38.3687V21.8883C38.3687 23.1283 39.2887 24.1583 40.4487 24.1583H51.1387C52.2987 24.1583 53.2186 23.1283 53.2186 21.8883V21.4583H58.1587C59.5487 21.4583 60.6487 22.6783 60.6487 24.1583Z" fill="#E1E1FF"/>
</svg>
