<svg width="26" height="26" viewBox="0 0 26 26" fill="none" xmlns="http://www.w3.org/2000/svg">
<path d="M13.0532 25.8989C19.9568 25.8989 25.5532 20.3025 25.5532 13.3989C25.5532 6.49537 19.9568 0.898926 13.0532 0.898926C6.14966 0.898926 0.553223 6.49537 0.553223 13.3989C0.553223 20.3025 6.14966 25.8989 13.0532 25.8989Z" fill="#FF9900"/>
<path d="M17.0249 9.78175C17.2463 9.56039 17.6239 9.71664 17.6239 10.0291V19.7271C17.6239 20.1125 17.3348 20.4302 16.978 20.4302H10.5379C10.1785 20.4302 9.89209 20.1125 9.89209 19.7271V17.0604C9.89209 16.9666 9.92855 16.8781 9.99626 16.813L17.0249 9.78175Z" fill="#FFF3E1"/>
<path d="M16.2173 7.0708V9.03434C16.2173 9.12809 16.1808 9.21663 16.1131 9.28174L9.08185 16.313C8.8605 16.5343 8.48291 16.3781 8.48291 16.0656V7.0708C8.48291 6.68538 8.77197 6.36768 9.12874 6.36768H10.4152V6.47965C10.4152 6.80257 10.6548 7.0708 10.9569 7.0708H13.7407C14.0428 7.0708 14.2824 6.80257 14.2824 6.47965V6.36768H15.5688C15.9308 6.36768 16.2173 6.68538 16.2173 7.0708Z" fill="#FFF3E1"/>
</svg>
