<svg width="26" height="26" viewBox="0 0 26 26" fill="none" xmlns="http://www.w3.org/2000/svg">
<path d="M12.5591 25.8989C19.4626 25.8989 25.0591 20.3025 25.0591 13.3989C25.0591 6.49537 19.4626 0.898926 12.5591 0.898926C5.65552 0.898926 0.059082 6.49537 0.059082 13.3989C0.059082 20.3025 5.65552 25.8989 12.5591 25.8989Z" fill="#FF00A8"/>
<path d="M19.2204 12.7244H12.5485V9.67757C12.5485 7.85726 11.0667 6.37549 9.24382 6.37549H8.94434C7.12142 6.37549 5.63965 7.85726 5.63965 9.67757V12.727C5.63965 12.8677 5.75423 12.9823 5.89486 12.9823C6.03548 12.9823 6.15006 12.8677 6.15006 12.727V9.67757C6.15006 8.13851 7.40267 6.8859 8.94434 6.8859H9.24382C10.7881 6.8859 12.0381 8.13851 12.0381 9.67757V12.727H11.6344C11.4938 12.727 11.3792 12.8416 11.3792 12.9823V16.2791C11.3792 18.4588 13.0537 20.3312 15.2308 20.4354C17.5537 20.5448 19.473 18.6906 19.473 16.3937V12.9823C19.4756 12.839 19.361 12.7244 19.2204 12.7244ZM15.624 16.2791V17.6932C15.624 17.8 15.5381 17.8859 15.4313 17.8859C15.3219 17.8859 15.236 17.8 15.236 17.6932V16.2791C15.0329 16.1906 14.9001 15.9666 14.9521 15.7218C14.9938 15.5396 15.1449 15.3885 15.3298 15.3494C15.6423 15.2896 15.9209 15.5291 15.9209 15.8312C15.9183 16.0317 15.7959 16.2036 15.624 16.2791Z" fill="#E1E1FF"/>
</svg>
