<svg width="97" height="97" viewBox="0 0 97 97" fill="none" xmlns="http://www.w3.org/2000/svg">
<path d="M48.4987 96.4583C75.0083 96.4583 96.4987 74.968 96.4987 48.4583C96.4987 21.9487 75.0083 0.458344 48.4987 0.458344C21.989 0.458344 0.498657 21.9487 0.498657 48.4583C0.498657 74.968 21.989 96.4583 48.4987 96.4583Z" fill="#0C53E2"/>
<path d="M63.4086 24.1783V72.7383C63.4086 74.2283 62.2886 75.4583 60.9086 75.4583H36.0486C34.6686 75.4583 33.5486 74.2283 33.5486 72.7383V24.1783C33.5486 22.6883 34.6686 21.4583 36.0486 21.4583H41.0186V21.8883C41.0186 23.1383 41.9386 24.1783 43.1086 24.1783H53.8586C55.0286 24.1783 55.9486 23.1383 55.9486 21.8883V21.4583H60.9186C62.2886 21.4583 63.4086 22.6883 63.4086 24.1783Z" fill="#8585FF"/>
<path d="M36.0484 74.3583C35.2784 74.3583 34.6584 73.6383 34.6584 72.7483V24.1783C34.6584 23.2883 35.2784 22.5683 36.0484 22.5683H39.9684C40.2684 24.1183 41.5584 25.2883 43.0984 25.2883H53.8484C55.3884 25.2883 56.6884 24.1183 56.9784 22.5683H60.8984C61.6684 22.5683 62.2884 23.2883 62.2884 24.1783V72.7383C62.2884 73.6283 61.6584 74.3483 60.8984 74.3483H36.0484V74.3583Z" fill="#E1E1FF"/>
<path d="M37.4185 32.4283C37.2785 32.4283 37.1385 32.3783 37.0285 32.2683C36.8085 32.0483 36.8085 31.6983 37.0285 31.4883L40.3485 28.1683C40.5685 27.9483 40.9185 27.9483 41.1285 28.1683C41.3485 28.3883 41.3485 28.7383 41.1285 28.9483L37.8085 32.2683C37.6985 32.3683 37.5585 32.4283 37.4185 32.4283Z" fill="#8585FF"/>
<path d="M38.5184 35.7383C38.3784 35.7383 38.2384 35.6883 38.1284 35.5783C37.9084 35.3583 37.9084 35.0083 38.1284 34.7983L43.6584 29.2683C43.8784 29.0483 44.2284 29.0483 44.4384 29.2683C44.6584 29.4883 44.6584 29.8383 44.4384 30.0483L38.9084 35.5783C38.8084 35.6883 38.6584 35.7383 38.5184 35.7383Z" fill="#8585FF"/>
<path d="M26.9085 37.3983C27.8253 37.3983 28.5685 36.6551 28.5685 35.7383C28.5685 34.8216 27.8253 34.0783 26.9085 34.0783C25.9917 34.0783 25.2485 34.8216 25.2485 35.7383C25.2485 36.6551 25.9917 37.3983 26.9085 37.3983Z" fill="#E1E1FF"/>
<path d="M31.3385 46.2483C32.2553 46.2483 32.9985 45.5051 32.9985 44.5883C32.9985 43.6716 32.2553 42.9283 31.3385 42.9283C30.4217 42.9283 29.6785 43.6716 29.6785 44.5883C29.6785 45.5051 30.4217 46.2483 31.3385 46.2483Z" fill="#E1E1FF"/>
<path d="M66.7186 31.8683C67.6354 31.8683 68.3786 31.1251 68.3786 30.2083C68.3786 29.2915 67.6354 28.5483 66.7186 28.5483C65.8018 28.5483 65.0586 29.2915 65.0586 30.2083C65.0586 31.1251 65.8018 31.8683 66.7186 31.8683Z" fill="#E1E1FF"/>
</svg>
