<svg width="26" height="26" viewBox="0 0 26 26" fill="none" xmlns="http://www.w3.org/2000/svg">
<path d="M12.9355 25.8989C19.8391 25.8989 25.4355 20.3025 25.4355 13.3989C25.4355 6.49537 19.8391 0.898926 12.9355 0.898926C6.03199 0.898926 0.435547 6.49537 0.435547 13.3989C0.435547 20.3025 6.03199 25.8989 12.9355 25.8989Z" fill="#00F0C8"/>
<path d="M16.8185 7.07601V19.7218C16.8185 20.1099 16.5269 20.4302 16.1675 20.4302H9.69352C9.33415 20.4302 9.04248 20.1099 9.04248 19.7218V7.07601C9.04248 6.68799 9.33415 6.36768 9.69352 6.36768H10.9878V6.47965C10.9878 6.80518 11.2274 7.07601 11.5321 7.07601H14.3315C14.6362 7.07601 14.8758 6.80518 14.8758 6.47965V6.36768H16.1701C16.5269 6.36768 16.8185 6.68799 16.8185 7.07601Z" fill="#00CCAA"/>
<path d="M9.69352 20.1437C9.493 20.1437 9.33154 19.9562 9.33154 19.7244V7.07601C9.33154 6.84424 9.493 6.65674 9.69352 6.65674H10.7144C10.7925 7.06038 11.1284 7.36507 11.5295 7.36507H14.3289C14.73 7.36507 15.0685 7.06038 15.144 6.65674H16.1649C16.3654 6.65674 16.5268 6.84424 16.5268 7.07601V19.7218C16.5268 19.9536 16.3628 20.1411 16.1649 20.1411H9.69352V20.1437Z" fill="#E0FFFA"/>
<path d="M10.0503 9.22437C10.0138 9.22437 9.97738 9.21134 9.94873 9.1827C9.89144 9.12541 9.89144 9.03426 9.94873 8.97957L10.8133 8.11499C10.8706 8.0577 10.9617 8.0577 11.0164 8.11499C11.0737 8.17228 11.0737 8.26343 11.0164 8.31812L10.1519 9.1827C10.1232 9.20874 10.0867 9.22437 10.0503 9.22437Z" fill="#00CCAA"/>
<path d="M10.3364 10.0865C10.3 10.0865 10.2635 10.0735 10.2349 10.0448C10.1776 9.98755 10.1776 9.8964 10.2349 9.84172L11.675 8.40161C11.7323 8.34432 11.8234 8.34432 11.8781 8.40161C11.9354 8.4589 11.9354 8.55005 11.8781 8.60474L10.438 10.0448C10.412 10.0735 10.3729 10.0865 10.3364 10.0865Z" fill="#00CCAA"/>
<path d="M7.31315 10.5186C7.5519 10.5186 7.74544 10.3251 7.74544 10.0863C7.74544 9.8476 7.5519 9.65405 7.31315 9.65405C7.0744 9.65405 6.88086 9.8476 6.88086 10.0863C6.88086 10.3251 7.0744 10.5186 7.31315 10.5186Z" fill="#E0FFFA"/>
<path d="M8.46647 12.8233C8.70522 12.8233 8.89876 12.6298 8.89876 12.391C8.89876 12.1523 8.70522 11.9587 8.46647 11.9587C8.22772 11.9587 8.03418 12.1523 8.03418 12.391C8.03418 12.6298 8.22772 12.8233 8.46647 12.8233Z" fill="#E0FFFA"/>
<path d="M17.6803 9.07869C17.9191 9.07869 18.1126 8.88515 18.1126 8.6464C18.1126 8.40765 17.9191 8.21411 17.6803 8.21411C17.4416 8.21411 17.248 8.40765 17.248 8.6464C17.248 8.88515 17.4416 9.07869 17.6803 9.07869Z" fill="#E0FFFA"/>
</svg>
