<svg width="97" height="97" viewBox="0 0 97 97" fill="none" xmlns="http://www.w3.org/2000/svg">
<path d="M48.4985 96.4583C75.0082 96.4583 96.4985 74.968 96.4985 48.4583C96.4985 21.9486 75.0082 0.458313 48.4985 0.458313C21.9889 0.458313 0.498535 21.9486 0.498535 48.4583C0.498535 74.968 21.9889 96.4583 48.4985 96.4583Z" fill="#0C53E2"/>
<path d="M50.5785 61.7683C49.7785 63.1483 49.7785 64.7983 50.5785 66.1783C51.3685 67.5583 52.8084 68.3783 54.3884 68.3783H62.8484V72.7283C62.8484 74.2283 61.7384 75.4483 60.3584 75.4483H35.5785C34.1985 75.4483 33.0884 74.2283 33.0884 72.7283V24.3383C33.0884 22.8383 34.1985 21.6183 35.5785 21.6183H40.5284V22.0583C40.5284 23.3083 41.4484 24.3383 42.6084 24.3383H53.3285C54.4985 24.3383 55.4084 23.2983 55.4084 22.0583V21.6183H60.3584C61.7384 21.6183 62.8484 22.8383 62.8484 24.3383V44.1483C61.4384 44.2883 60.1984 45.0883 59.4884 46.3283L50.5785 61.7683Z" fill="#E1E1FF"/>
<path d="M74.1185 62.8683L65.2085 47.4383C64.3585 45.9683 62.2285 45.9683 61.3785 47.4383L52.4685 62.8683C51.6185 64.3383 52.6785 66.1783 54.3785 66.1783H72.2085C73.9185 66.1783 74.9685 64.3383 74.1185 62.8683ZM63.2985 63.9783C62.6885 63.9783 62.1986 63.4783 62.1986 62.8783C62.1986 62.2783 62.6985 61.7783 63.2985 61.7783C63.9185 61.7783 64.3985 62.2783 64.3985 62.8783C64.3985 63.4783 63.9185 63.9783 63.2985 63.9783ZM64.3985 54.5283C64.2885 55.7383 64.1386 56.9683 63.9486 58.1883C63.8086 59.0183 63.5785 59.8383 63.3985 60.6683C63.2185 59.8383 62.9885 59.0183 62.8485 58.1883C62.6585 56.9683 62.5085 55.7383 62.3985 54.5283C62.2785 53.2083 62.5985 51.8483 63.3785 50.7683C63.3885 50.7683 63.3885 50.7583 63.3985 50.7483C63.4085 50.7583 63.4085 50.7683 63.4185 50.7683C64.1985 51.8483 64.5185 53.1983 64.3985 54.5283Z" fill="#E1E1FF"/>
</svg>
