<svg width="26" height="26" viewBox="0 0 26 26" fill="none" xmlns="http://www.w3.org/2000/svg">
<path d="M13.312 25.8989C20.2156 25.8989 25.812 20.3025 25.812 13.3989C25.812 6.49537 20.2156 0.898926 13.312 0.898926C6.40845 0.898926 0.812012 6.49537 0.812012 13.3989C0.812012 20.3025 6.40845 25.8989 13.312 25.8989Z" fill="#D500FF"/>
<path d="M13.8535 16.8652C13.6452 17.2245 13.6452 17.6542 13.8535 18.0136C14.0593 18.373 14.4343 18.5865 14.8457 18.5865H17.0488V19.7193C17.0488 20.1099 16.7598 20.4277 16.4004 20.4277H9.94729C9.58792 20.4277 9.29883 20.1099 9.29883 19.7193V7.11776C9.29883 6.72713 9.58792 6.40942 9.94729 6.40942H11.2363V6.52401C11.2363 6.84953 11.4759 7.11776 11.778 7.11776H14.5697C14.8744 7.11776 15.1113 6.84692 15.1113 6.52401V6.40942H16.4004C16.7598 6.40942 17.0488 6.72713 17.0488 7.11776V12.2766C16.6816 12.3131 16.3587 12.5214 16.1738 12.8443L13.8535 16.8652Z" fill="#FFE0F0"/>
<path d="M19.9831 17.1515L17.6628 13.1333C17.4414 12.7505 16.8868 12.7505 16.6654 13.1333L14.3451 17.1515C14.1237 17.5343 14.3998 18.0135 14.8425 18.0135H19.4857C19.931 18.0135 20.2045 17.5343 19.9831 17.1515ZM17.1654 17.4406C17.0066 17.4406 16.879 17.3104 16.879 17.1541C16.879 16.9979 17.0092 16.8677 17.1654 16.8677C17.3269 16.8677 17.4519 16.9979 17.4519 17.1541C17.4519 17.3104 17.3269 17.4406 17.1654 17.4406ZM17.4519 14.9797C17.4232 15.2948 17.3842 15.6151 17.3347 15.9328C17.2982 16.1489 17.2383 16.3625 17.1915 16.5786C17.1446 16.3625 17.0847 16.1489 17.0482 15.9328C16.9987 15.6151 16.9597 15.2948 16.931 14.9797C16.8998 14.6359 16.9831 14.2817 17.1862 14.0005C17.1888 14.0005 17.1889 13.9979 17.1915 13.9953C17.1941 13.9979 17.1941 14.0005 17.1967 14.0005C17.3998 14.2817 17.4831 14.6333 17.4519 14.9797Z" fill="#FFE0F0"/>
</svg>
