<svg width="26" height="26" viewBox="0 0 26 26" fill="none" xmlns="http://www.w3.org/2000/svg">
<path d="M13.1826 25.8989C20.0862 25.8989 25.6826 20.3025 25.6826 13.3989C25.6826 6.49537 20.0862 0.898926 13.1826 0.898926C6.27906 0.898926 0.682617 6.49537 0.682617 13.3989C0.682617 20.3025 6.27906 25.8989 13.1826 25.8989Z" fill="#FF5C00"/>
<path d="M14.2604 8.86509V17.9302C14.2604 18.2479 13.9167 18.451 13.6406 18.2896L9.71094 16.0213V10.7739L13.6406 8.50571C13.9167 8.34946 14.2604 8.54738 14.2604 8.86509Z" fill="#FFECE0"/>
<path d="M9.23179 10.8599V15.8417C9.23179 15.9875 9.12501 16.1047 8.99219 16.1047H7.79428C7.66147 16.1047 7.55469 15.9875 7.55469 15.8417V10.8599C7.55469 10.7141 7.66147 10.5969 7.79428 10.5969H8.99219C9.12501 10.5969 9.23179 10.7141 9.23179 10.8599Z" fill="#FFECE0"/>
<path d="M15.219 17.3755C15.1018 17.3755 15.0002 17.2896 14.982 17.1724C14.9611 17.0422 15.0523 16.9198 15.1825 16.899C16.9768 16.6255 18.3309 15.0474 18.3309 13.2297C18.3309 11.412 16.9768 9.83386 15.1825 9.56042C15.0523 9.53959 14.9611 9.41719 14.982 9.28699C15.0028 9.15678 15.1226 9.06563 15.2554 9.08646C17.2814 9.39636 18.8101 11.1776 18.8101 13.2297C18.8101 15.2818 17.2814 17.063 15.2554 17.3729C15.2424 17.3755 15.2294 17.3755 15.219 17.3755Z" fill="#FFECE0"/>
<path d="M15.2187 16.2296C15.1093 16.2296 15.0103 16.1541 14.9843 16.0421C14.9556 15.9119 15.039 15.7843 15.1666 15.7583C16.3463 15.5031 17.203 14.4406 17.203 13.2349C17.203 12.0291 16.3463 10.9666 15.1666 10.7114C15.0364 10.6828 14.9556 10.5552 14.9843 10.4276C15.0129 10.2974 15.1405 10.2166 15.2681 10.2453C16.6666 10.5474 17.6822 11.8078 17.6822 13.2375C17.6822 14.6671 16.6666 15.9276 15.2681 16.2296C15.2525 16.227 15.2343 16.2296 15.2187 16.2296Z" fill="#FFECE0"/>
<path d="M15.2186 15.0525C15.1222 15.0525 15.031 14.9926 14.9946 14.8963C14.9477 14.7713 15.0102 14.6332 15.1352 14.589C15.6977 14.378 16.0753 13.8338 16.0753 13.2296C16.0753 12.628 15.6977 12.0812 15.1352 11.8702C15.0102 11.8233 14.9477 11.6853 14.9946 11.5629C15.0414 11.4379 15.1795 11.3754 15.3019 11.4223C16.0493 11.7036 16.5519 12.4275 16.5519 13.2296C16.5519 14.0317 16.0493 14.7556 15.3019 15.0369C15.2732 15.0499 15.2472 15.0525 15.2186 15.0525Z" fill="#FFECE0"/>
</svg>
