<svg width="97" height="97" viewBox="0 0 97 97" fill="none" xmlns="http://www.w3.org/2000/svg">
<path d="M48.4987 96.4583C75.0083 96.4583 96.4987 74.968 96.4987 48.4583C96.4987 21.9486 75.0083 0.458313 48.4987 0.458313C21.989 0.458313 0.498657 21.9486 0.498657 48.4583C0.498657 74.968 21.989 96.4583 48.4987 96.4583Z" fill="#0C53E2"/>
<path d="M52.6387 31.0483V65.8583C52.6387 67.0783 51.3187 67.8583 50.2587 67.2383L35.1687 58.5283V38.3783L50.2587 29.6683C51.3187 29.0683 52.6387 29.8283 52.6387 31.0483Z" fill="#E1E1FF"/>
<path d="M33.3287 38.7083V57.8383C33.3287 58.3983 32.9187 58.8483 32.4087 58.8483H27.8087C27.2987 58.8483 26.8887 58.3983 26.8887 57.8383V38.7083C26.8887 38.1483 27.2987 37.6983 27.8087 37.6983H32.4087C32.9187 37.6983 33.3287 38.1483 33.3287 38.7083Z" fill="#E1E1FF"/>
<path d="M56.3188 63.7283C55.8688 63.7283 55.4787 63.3983 55.4087 62.9483C55.3287 62.4483 55.6788 61.9783 56.1788 61.8983C63.0688 60.8483 68.2687 54.7883 68.2687 47.8083C68.2687 40.8283 63.0688 34.7683 56.1788 33.7183C55.6788 33.6383 55.3287 33.1683 55.4087 32.6683C55.4887 32.1683 55.9487 31.8183 56.4587 31.8983C64.2387 33.0883 70.1087 39.9283 70.1087 47.8083C70.1087 55.6883 64.2387 62.5283 56.4587 63.7183C56.4087 63.7283 56.3588 63.7283 56.3188 63.7283Z" fill="#E1E1FF"/>
<path d="M56.3187 59.3283C55.8987 59.3283 55.5186 59.0383 55.4186 58.6083C55.3086 58.1083 55.6286 57.6183 56.1186 57.5183C60.6486 56.5383 63.9387 52.4583 63.9387 47.8283C63.9387 43.1983 60.6486 39.1183 56.1186 38.1383C55.6186 38.0283 55.3086 37.5383 55.4186 37.0483C55.5286 36.5483 56.0186 36.2383 56.5086 36.3483C61.8786 37.5083 65.7786 42.3483 65.7786 47.8383C65.7786 53.3283 61.8786 58.1683 56.5086 59.3283C56.4486 59.3183 56.3787 59.3283 56.3187 59.3283Z" fill="#E1E1FF"/>
<path d="M56.3187 54.8083C55.9487 54.8083 55.5986 54.5783 55.4586 54.2083C55.2786 53.7283 55.5186 53.1983 55.9986 53.0283C58.1586 52.2183 59.6086 50.1283 59.6086 47.8083C59.6086 45.4983 58.1586 43.3983 55.9986 42.5883C55.5186 42.4083 55.2786 41.8783 55.4586 41.4083C55.6386 40.9283 56.1686 40.6883 56.6386 40.8683C59.5086 41.9483 61.4387 44.7283 61.4387 47.8083C61.4387 50.8883 59.5086 53.6683 56.6386 54.7483C56.5286 54.7983 56.4287 54.8083 56.3187 54.8083Z" fill="#E1E1FF"/>
</svg>
