<svg width="97" height="97" viewBox="0 0 97 97" fill="none" xmlns="http://www.w3.org/2000/svg">
<path d="M48.4987 96.4583C75.0083 96.4583 96.4987 74.968 96.4987 48.4583C96.4987 21.9486 75.0083 0.458313 48.4987 0.458313C21.989 0.458313 0.498657 21.9486 0.498657 48.4583C0.498657 74.968 21.989 96.4583 48.4987 96.4583Z" fill="#0C53E2"/>
<path d="M60.9287 21.4583H55.9688V21.8983C55.9688 23.1483 55.0487 24.1883 53.8787 24.1883H43.1287C41.9587 24.1883 41.0388 23.1483 41.0388 21.8983V21.4583H36.0787C34.6987 21.4583 33.5787 22.6883 33.5787 24.1883V72.7283C33.5787 74.2283 34.6987 75.4583 36.0787 75.4583H60.9287C62.3087 75.4583 63.4287 74.2283 63.4287 72.7283V24.1883C63.4287 22.6883 62.3087 21.4583 60.9287 21.4583ZM48.4987 55.6483C45.7187 55.6483 43.4688 53.3883 43.4688 50.6183C43.4688 47.8383 48.4987 41.2783 48.4987 41.2783C48.4987 41.2783 53.5287 47.8483 53.5287 50.6183C53.5287 53.3883 51.2787 55.6483 48.4987 55.6483Z" fill="#E1E1FF"/>
</svg>
