<svg width="26" height="26" viewBox="0 0 26 26" fill="none" xmlns="http://www.w3.org/2000/svg">
<path d="M12.8062 25.8989C19.7097 25.8989 25.3062 20.3025 25.3062 13.3989C25.3062 6.49537 19.7097 0.898926 12.8062 0.898926C5.90259 0.898926 0.306152 6.49537 0.306152 13.3989C0.306152 20.3025 5.90259 25.8989 12.8062 25.8989Z" fill="#5500FF"/>
<path d="M16.0433 6.36768H14.7516V6.48226C14.7516 6.80778 14.512 7.07861 14.2074 7.07861H11.4079C11.1032 7.07861 10.8636 6.80778 10.8636 6.48226V6.36768H9.57194C9.21257 6.36768 8.9209 6.68799 8.9209 7.07861V19.7192C8.9209 20.1099 9.21257 20.4302 9.57194 20.4302H16.0433C16.4027 20.4302 16.6943 20.1099 16.6943 19.7192V7.07861C16.6943 6.68799 16.4027 6.36768 16.0433 6.36768ZM12.8063 15.2713C12.0824 15.2713 11.4964 14.6828 11.4964 13.9614C11.4964 13.2375 12.8063 11.5291 12.8063 11.5291C12.8063 11.5291 14.1162 13.2401 14.1162 13.9614C14.1162 14.6828 13.5303 15.2713 12.8063 15.2713Z" fill="#EAE0FF"/>
</svg>
